<svg width="25" height="25" viewBox="0 0 25 25" fill="none" xmlns="http://www.w3.org/2000/svg">
<mask id="mask0_104_13" style="mask-type:alpha" maskUnits="userSpaceOnUse" x="0" y="0" width="25" height="25">
<rect x="0.53009" y="0.398926" width="24" height="24" fill="#D9D9D9"/>
</mask>
<g mask="url(#mask0_104_13)">
<path d="M18.5301 18.3989C18.9468 18.3989 19.3009 18.2531 19.5926 17.9614C19.8843 17.6698 20.0301 17.3156 20.0301 16.8989C20.0301 16.4823 19.8843 16.1281 19.5926 15.8364C19.3009 15.5448 18.9468 15.3989 18.5301 15.3989C18.1134 15.3989 17.7593 15.5448 17.4676 15.8364C17.1759 16.1281 17.0301 16.4823 17.0301 16.8989C17.0301 17.3156 17.1759 17.6698 17.4676 17.9614C17.7593 18.2531 18.1134 18.3989 18.5301 18.3989ZM18.5301 21.3989C19.0301 21.3989 19.4968 21.2823 19.9301 21.0489C20.3634 20.8156 20.7218 20.4906 21.0051 20.0739C20.6218 19.8406 20.2218 19.6698 19.8051 19.5614C19.3884 19.4531 18.9634 19.3989 18.5301 19.3989C18.0968 19.3989 17.6718 19.4531 17.2551 19.5614C16.8384 19.6698 16.4384 19.8406 16.0551 20.0739C16.3384 20.4906 16.6968 20.8156 17.1301 21.0489C17.5634 21.2823 18.0301 21.3989 18.5301 21.3989ZM9.53009 8.39893H15.5301V6.39893C15.5301 5.56559 15.2384 4.85726 14.6551 4.27393C14.0718 3.69059 13.3634 3.39893 12.5301 3.39893C11.6968 3.39893 10.9884 3.69059 10.4051 4.27393C9.82176 4.85726 9.53009 5.56559 9.53009 6.39893V8.39893ZM12.7801 22.3989H6.53009C5.98009 22.3989 5.50926 22.2031 5.11759 21.8114C4.72592 21.4198 4.53009 20.9489 4.53009 20.3989V10.3989C4.53009 9.84893 4.72592 9.37809 5.11759 8.98643C5.50926 8.59476 5.98009 8.39893 6.53009 8.39893H7.53009V6.39893C7.53009 5.01559 8.01759 3.83643 8.99259 2.86143C9.96759 1.88643 11.1468 1.39893 12.5301 1.39893C13.9134 1.39893 15.0926 1.88643 16.0676 2.86143C17.0426 3.83643 17.5301 5.01559 17.5301 6.39893V8.39893H18.5301C19.0801 8.39893 19.5509 8.59476 19.9426 8.98643C20.3343 9.37809 20.5301 9.84893 20.5301 10.3989V11.6989C20.2301 11.5989 19.9176 11.5239 19.5926 11.4739C19.2676 11.4239 18.9134 11.3989 18.5301 11.3989V10.3989H6.53009V20.3989H11.8301C11.9634 20.7989 12.0968 21.1448 12.2301 21.4364C12.3634 21.7281 12.5468 22.0489 12.7801 22.3989ZM18.5301 23.3989C17.1468 23.3989 15.9676 22.9114 14.9926 21.9364C14.0176 20.9614 13.5301 19.7823 13.5301 18.3989C13.5301 17.0156 14.0176 15.8364 14.9926 14.8614C15.9676 13.8864 17.1468 13.3989 18.5301 13.3989C19.9134 13.3989 21.0926 13.8864 22.0676 14.8614C23.0426 15.8364 23.5301 17.0156 23.5301 18.3989C23.5301 19.7823 23.0426 20.9614 22.0676 21.9364C21.0926 22.9114 19.9134 23.3989 18.5301 23.3989Z" fill="#1C1B1F"/>
</g>
</svg>
