<svg width="25" height="25" viewBox="0 0 25 25" fill="none" xmlns="http://www.w3.org/2000/svg">
<mask id="mask0_104_7" style="mask-type:alpha" maskUnits="userSpaceOnUse" x="0" y="0" width="25" height="25">
<rect x="0.53009" y="0.921875" width="24" height="24" fill="#D9D9D9"/>
</mask>
<g mask="url(#mask0_104_7)">
<path d="M12.5301 12.9219C11.4301 12.9219 10.4884 12.5302 9.70509 11.7469C8.92176 10.9635 8.53009 10.0219 8.53009 8.92188C8.53009 7.82187 8.92176 6.88021 9.70509 6.09688C10.4884 5.31354 11.4301 4.92188 12.5301 4.92188C13.6301 4.92188 14.5718 5.31354 15.3551 6.09688C16.1384 6.88021 16.5301 7.82187 16.5301 8.92188C16.5301 10.0219 16.1384 10.9635 15.3551 11.7469C14.5718 12.5302 13.6301 12.9219 12.5301 12.9219ZM4.53009 20.9219V18.1219C4.53009 17.5552 4.67592 17.0344 4.96759 16.5594C5.25926 16.0844 5.64676 15.7219 6.13009 15.4719C7.16342 14.9552 8.21342 14.5677 9.28009 14.3094C10.3468 14.051 11.4301 13.9219 12.5301 13.9219C13.6301 13.9219 14.7134 14.051 15.7801 14.3094C16.8468 14.5677 17.8968 14.9552 18.9301 15.4719C19.4134 15.7219 19.8009 16.0844 20.0926 16.5594C20.3843 17.0344 20.5301 17.5552 20.5301 18.1219V20.9219H4.53009ZM6.53009 18.9219H18.5301V18.1219C18.5301 17.9385 18.4843 17.7719 18.3926 17.6219C18.3009 17.4719 18.1801 17.3552 18.0301 17.2719C17.1301 16.8219 16.2218 16.4844 15.3051 16.2594C14.3884 16.0344 13.4634 15.9219 12.5301 15.9219C11.5968 15.9219 10.6718 16.0344 9.75509 16.2594C8.83842 16.4844 7.93009 16.8219 7.03009 17.2719C6.88009 17.3552 6.75926 17.4719 6.66759 17.6219C6.57592 17.7719 6.53009 17.9385 6.53009 18.1219V18.9219ZM12.5301 10.9219C13.0801 10.9219 13.5509 10.726 13.9426 10.3344C14.3343 9.94271 14.5301 9.47188 14.5301 8.92188C14.5301 8.37187 14.3343 7.90104 13.9426 7.50938C13.5509 7.11771 13.0801 6.92188 12.5301 6.92188C11.9801 6.92188 11.5093 7.11771 11.1176 7.50938C10.7259 7.90104 10.5301 8.37187 10.5301 8.92188C10.5301 9.47188 10.7259 9.94271 11.1176 10.3344C11.5093 10.726 11.9801 10.9219 12.5301 10.9219Z" fill="#1C1B1F"/>
</g>
</svg>
