<svg width="25" height="25" viewBox="0 0 25 25" fill="none" xmlns="http://www.w3.org/2000/svg">
<mask id="mask0_106_7" style="mask-type:alpha" maskUnits="userSpaceOnUse" x="0" y="0" width="25" height="25">
<rect x="0.783997" y="0.797852" width="24" height="24" fill="#D9D9D9"/>
</mask>
<g mask="url(#mask0_106_7)">
<path d="M18.784 22.7979C17.9507 22.7979 17.2423 22.5062 16.659 21.9229C16.0757 21.3395 15.784 20.6312 15.784 19.7979C15.784 19.6812 15.7923 19.5604 15.809 19.4354C15.8257 19.3104 15.8507 19.1979 15.884 19.0979L8.834 14.9979C8.55066 15.2479 8.234 15.4437 7.884 15.5854C7.534 15.727 7.16733 15.7979 6.784 15.7979C5.95066 15.7979 5.24233 15.5062 4.659 14.9229C4.07566 14.3395 3.784 13.6312 3.784 12.7979C3.784 11.9645 4.07566 11.2562 4.659 10.6729C5.24233 10.0895 5.95066 9.79785 6.784 9.79785C7.16733 9.79785 7.534 9.86868 7.884 10.0104C8.234 10.152 8.55066 10.3479 8.834 10.5979L15.884 6.49785C15.8507 6.39785 15.8257 6.28535 15.809 6.16035C15.7923 6.03535 15.784 5.91452 15.784 5.79785C15.784 4.96452 16.0757 4.25618 16.659 3.67285C17.2423 3.08952 17.9507 2.79785 18.784 2.79785C19.6173 2.79785 20.3257 3.08952 20.909 3.67285C21.4923 4.25618 21.784 4.96452 21.784 5.79785C21.784 6.63118 21.4923 7.33952 20.909 7.92285C20.3257 8.50618 19.6173 8.79785 18.784 8.79785C18.4007 8.79785 18.034 8.72702 17.684 8.58535C17.334 8.44368 17.0173 8.24785 16.734 7.99785L9.684 12.0979C9.71733 12.1979 9.74233 12.3104 9.759 12.4354C9.77566 12.5604 9.784 12.6812 9.784 12.7979C9.784 12.9145 9.77566 13.0354 9.759 13.1604C9.74233 13.2854 9.71733 13.3979 9.684 13.4979L16.734 17.5979C17.0173 17.3479 17.334 17.152 17.684 17.0104C18.034 16.8687 18.4007 16.7979 18.784 16.7979C19.6173 16.7979 20.3257 17.0895 20.909 17.6729C21.4923 18.2562 21.784 18.9645 21.784 19.7979C21.784 20.6312 21.4923 21.3395 20.909 21.9229C20.3257 22.5062 19.6173 22.7979 18.784 22.7979ZM18.784 6.79785C19.0673 6.79785 19.3048 6.70202 19.4965 6.51035C19.6882 6.31868 19.784 6.08118 19.784 5.79785C19.784 5.51452 19.6882 5.27702 19.4965 5.08535C19.3048 4.89369 19.0673 4.79785 18.784 4.79785C18.5007 4.79785 18.2632 4.89369 18.0715 5.08535C17.8798 5.27702 17.784 5.51452 17.784 5.79785C17.784 6.08118 17.8798 6.31868 18.0715 6.51035C18.2632 6.70202 18.5007 6.79785 18.784 6.79785ZM6.784 13.7979C7.06733 13.7979 7.30483 13.702 7.4965 13.5104C7.68816 13.3187 7.784 13.0812 7.784 12.7979C7.784 12.5145 7.68816 12.277 7.4965 12.0854C7.30483 11.8937 7.06733 11.7979 6.784 11.7979C6.50066 11.7979 6.26316 11.8937 6.0715 12.0854C5.87983 12.277 5.784 12.5145 5.784 12.7979C5.784 13.0812 5.87983 13.3187 6.0715 13.5104C6.26316 13.702 6.50066 13.7979 6.784 13.7979ZM18.784 20.7979C19.0673 20.7979 19.3048 20.702 19.4965 20.5104C19.6882 20.3187 19.784 20.0812 19.784 19.7979C19.784 19.5145 19.6882 19.277 19.4965 19.0854C19.3048 18.8937 19.0673 18.7979 18.784 18.7979C18.5007 18.7979 18.2632 18.8937 18.0715 19.0854C17.8798 19.277 17.784 19.5145 17.784 19.7979C17.784 20.0812 17.8798 20.3187 18.0715 20.5104C18.2632 20.702 18.5007 20.7979 18.784 20.7979Z" fill="#1C1B1F"/>
</g>
</svg>
